<!DOCTYPE svg PUBLIC "-//W3C//DTD SVG 1.1//EN" "http://www.w3.org/Graphics/SVG/1.1/DTD/svg11.dtd" >

<!-- Uploaded to: SVG Repo, www.svgrepo.com, Transformed by: SVG Repo Mixer Tools -->
<svg width="100" height="100" viewBox="0 0 256 256" version="1.1" xmlns="http://www.w3.org/2000/svg" xmlns:xlink="http://www.w3.org/1999/xlink" preserveAspectRatio="xMidYMid" fill="#000000" data-darkreader-inline-fill="" style="--darkreader-inline-fill: #000000;">

<g id="SVGRepo_bgCarrier" stroke-width="0"/>

<g id="SVGRepo_tracerCarrier" stroke-linecap="round" stroke-linejoin="round"/>

<g id="SVGRepo_iconCarrier">
  <g>
    <path d="M128,0 C113.856,0 102.4,11.456 102.4,25.6 L102.4,115.2 C102.4,129.328 113.856,140.8 128,140.8 C142.144,140.8 153.6,129.328 153.6,115.2 L153.6,55.584 C183.424,66.144 204.8,94.56 204.8,128 C204.8,170.4 170.4,204.8 128,204.8 C85.6,204.8 51.2,170.4 51.2,128 C51.2,106.784 59.792,87.584 73.696,73.696 C83.696,63.696 83.696,47.488 73.696,37.488 C63.696,27.488 47.488,27.488 37.488,37.488 C14.336,60.64 0,92.64 0,128 C0,198.688 57.312,256 128,256 C198.688,256 256,198.688 256,128 C256,57.312 198.688,0 128,0" fill="#a6e3a1" data-darkreader-inline-fill="" style="--darkreader-inline-fill: #a6e3a1;">
    </path>
  </g>
</g>

</svg>
