<?xml version="1.0" encoding="UTF-8" standalone="no" ?>
<!DOCTYPE svg PUBLIC "-//W3C//DTD SVG 1.1//EN" "http://www.w3.org/Graphics/SVG/1.1/DTD/svg11.dtd">
<svg xmlns="http://www.w3.org/2000/svg" xmlns:xlink="http://www.w3.org/1999/xlink" version="1.1" width="1080" height="1080" viewBox="0 0 1080 1080" xml:space="preserve">
<desc>Created with Fabric.js 5.2.4</desc>
<defs>
</defs>
<g transform="matrix(1 0 0 1 540 540)" id="b5325636-ef00-4629-97b0-20a1097eb5a1"  >
<rect style="stroke: none; stroke-width: 1; stroke-dasharray: none; stroke-linecap: butt; stroke-dashoffset: 0; stroke-linejoin: miter; stroke-miterlimit: 4; fill: rgb(255,255,255); fill-rule: nonzero; opacity: 1; visibility: hidden;" vector-effect="non-scaling-stroke"  x="-540" y="-540" rx="0" ry="0" width="1080" height="1080" />
</g>
<g transform="matrix(1 0 0 1 540 540)" id="3fcbd8a6-bfe5-4eb1-a080-cac560dcc446"  >
</g>
<g transform="matrix(44.5 0 0 44.5 540 738.31)"  >
<path style="stroke: rgb(0,0,0); stroke-width: 0; stroke-dasharray: none; stroke-linecap: butt; stroke-dashoffset: 0; stroke-linejoin: miter; stroke-miterlimit: 4; fill: rgb(247,91,125); fill-rule: nonzero; opacity: 1;" vector-effect="non-scaling-stroke"  transform=" translate(-12, -12)" d="M 23.881 8.948 C 23.108 4.863 19.022 4.355 19.022 4.355 L 0.723 4.355 C 0.119 4.355 0.04399999999999993 5.1530000000000005 0.04399999999999993 5.1530000000000005 C 0.04399999999999993 5.1530000000000005 -0.038000000000000075 12.477 0.02199999999999993 16.975 C 0.18599999999999994 19.399 2.6079999999999997 19.647000000000002 2.6079999999999997 19.647000000000002 C 2.6079999999999997 19.647000000000002 10.875 19.624000000000002 14.573999999999998 19.598000000000003 C 17.011999999999997 19.172000000000004 17.256999999999998 17.032000000000004 17.232 15.864000000000003 C 21.584 16.104000000000003 24.654 13.033000000000003 23.881 8.948000000000002 z M 12.819 12.459 C 11.573 13.911999999999999 8.808 16.435 8.808 16.435 C 8.808 16.435 8.687 16.554 8.498 16.458 C 8.421999999999999 16.401 8.389999999999999 16.368 8.389999999999999 16.368 C 7.946999999999999 15.926999999999998 5.0219999999999985 13.318999999999999 4.355999999999999 12.413999999999998 C 3.646999999999999 11.448999999999998 3.314999999999999 9.713999999999999 4.264999999999999 8.703999999999997 C 5.215999999999998 7.693999999999997 7.269999999999999 7.617999999999997 8.628 9.110999999999997 C 8.628 9.110999999999997 10.193 7.328999999999997 12.096 8.147999999999998 C 14 8.967999999999998 13.928 11.158999999999999 12.819 12.458999999999998 z M 18.992 12.937 C 18.064 13.052999999999999 17.310000000000002 12.965 17.310000000000002 12.965 L 17.310000000000002 7.284 L 19.080000000000002 7.284 C 19.080000000000002 7.284 21.051000000000002 7.835 21.051000000000002 9.922 C 21.051000000000002 11.835 20.066000000000003 12.589 18.992 12.937000000000001 z" stroke-linecap="round" />
</g>
</svg>